<svg height="100%" version="1.1" width="100%" xmlns="http://www.w3.org/2000/svg" preserveAspectRatio="xMidYMid meet" viewBox="0 0 600 442" xmlns:xlink="http://www.w3.org/1999/xlink"><desc>Created with Snap</desc><defs/><g id="root" contentwidth="288.1" contentheight="160">
          <rect class="background" height="2000%" width="2000%" y="-1000%" x="-1000%" style="" fill="#ffffff"/>
          <g class="content" id="content" transform="matrix(1,0,0,1,41.95,9)">
            <g class="icon">
            <svg height="83" version="1.1" width="82" xmlns="http://www.w3.org/2000/svg" x="144" y="169" preserveAspectRatio="none" transform="matrix(1,0,0,1,0,0)"><desc>Created with Snap</desc><defs/><svg xmlns="http://www.w3.org/2000/svg" viewBox="144 169 82 83"><path d="M225.444 200.999c5.13 22.216-8.627 44.362-30.726 49.464-12.18 2.812-24.352-.14-33.684-7.076a146.42 146.42 0 0 0 9.048-7.864 79.066 79.066 0 0 0 13.623-18.549h-.008l-18.926-19.022a78.712 78.712 0 0 0-18.454 13.685c-.615.646-1.224 1.298-1.825 1.956-1.706-20.12 11.507-38.932 31.651-43.583 22.1-5.102 44.172 8.772 49.301 30.989Z" id="prefix-_g5-形状结合" fill="#4B9DEF"/></svg></svg><svg height="54" version="1.1" width="45" xmlns="http://www.w3.org/2000/svg" x="181" y="170" preserveAspectRatio="none" transform="matrix(1,0,0,1,0,0)"><desc>Created with Snap</desc><defs/><svg xmlns="http://www.w3.org/2000/svg" viewBox="181 170 45 54"><path d="M195.065 169.913c14.51 3.421 26.613 14.77 30.2 30.311a40.526 40.526 0 0 1 .943 12.005l-5.19 1.198a2.36 2.36 0 0 0-1.472 1.059l-5.84 9.395-2.537-1.595.141-8.466a2.388 2.388 0 0 0-.875-1.895 2.369 2.369 0 0 0-2.03-.475l-5.26 1.214-6.938-11.393a2.393 2.393 0 0 0-.497-.578c1.151-6.099.603-10.845-1.676-13.137-.512-.516-1.147-.943-1.893-1.283l-4.907-5.962Zm-7.22 23.386c.088.074.172.15.252.23 1.712 1.711 1.892 5.481.748 10.32l-2.232 1.852-5.162-8.479Z" id="prefix-g92-形状结合" fill="#EFEAE1"/></svg></svg><svg height="14" version="1.1" width="14" xmlns="http://www.w3.org/2000/svg" x="122" y="245" preserveAspectRatio="none" transform="matrix(1,0,0,1,0,0)"><desc>Created with Snap</desc><defs/><svg xmlns="http://www.w3.org/2000/svg" viewBox="122 245 14 14"><path d="M134.354 246.675a5.581 5.581 0 0 0-7.92 0c-2.188 2.199-3.964 11.945-3.964 11.945s9.697-1.785 11.884-3.984a5.65 5.65 0 0 0-.008-7.953l.008-.008Z" id="prefix-sLE-路径" fill="#FFCD40" fill-rule="nonzero"/></svg></svg><svg height="160" version="1.1" width="246" xmlns="http://www.w3.org/2000/svg" x="114" y="132" preserveAspectRatio="none" transform="matrix(1,0,0,1,0,0)"><desc>Created with Snap</desc><defs/><svg xmlns="http://www.w3.org/2000/svg" viewBox="114 132 246 160"><path d="M309.07 287.457a86.31 86.31 0 0 0 3.228.13l1.058.016-.037 4.4a88.455 88.455 0 0 1-3.367-.094l-1.14-.06.259-4.392Zm12.768-.264.482 4.373c-1.18.13-2.382.232-3.605.304l-.92.049-.207-4.395a67.733 67.733 0 0 0 4.25-.331Zm-21.35-.632c1.08.16 2.152.3 3.214.424l1.059.117-.46 4.376c-1.101-.116-2.212-.25-3.332-.404l-1.123-.16.642-4.353Zm29.677-.909 1.143 4.25c-1.156.31-2.34.587-3.553.829l-.914.175-.794-4.328c1.417-.26 2.79-.568 4.118-.926Zm-38.18-.677c1.067.24 2.128.463 3.182.67l1.052.201-.81 4.325a124.703 124.703 0 0 1-3.283-.66l-1.104-.242.963-4.294Zm46.024-2.256 1.963 3.937a43.115 43.115 0 0 1-3.375 1.503l-.879.337-1.534-4.124a39.25 39.25 0 0 0 3.825-1.653Zm-54.42.08c.933.274 1.862.536 2.788.787l1.386.368-1.105 4.259a141.47 141.47 0 0 1-2.866-.777l-1.441-.414 1.238-4.222Zm-8.236-2.679c.915.327 1.828.643 2.739.95l1.364.45-1.362 4.185c-.935-.305-1.871-.62-2.81-.945l-1.41-.496 1.48-4.144Zm76.147-11.77a8.15 8.15 0 0 1 8.15 8.15 8.15 8.15 0 0 1-8.15 8.15c-2 0-3.831-.72-5.25-1.915a33.72 33.72 0 0 1-1.543 1.132l-.655.443-2.424-3.672a31.505 31.505 0 0 0 2.143-1.547 8.15 8.15 0 0 1 7.728-10.741Zm-84.244 8.632c.896.375 1.791.74 2.685 1.095l1.34.527-1.59 4.102a171.18 171.18 0 0 1-2.753-1.095l-1.378-.569 1.696-4.06Zm84.244-5.332a4.85 4.85 0 0 0 0 9.7l.216-.005a4.85 4.85 0 0 0-.216-9.695Zm-92.189 1.779c.878.418 1.755.828 2.633 1.23l1.316.594-1.798 4.017c-.898-.403-1.797-.814-2.696-1.234l-1.349-.636 1.894-3.971Zm-7.754-3.923c.856.458 1.712.908 2.57 1.35l1.286.657-1.987 3.926a193.47 193.47 0 0 1-2.631-1.357l-1.314-.696 2.076-3.88Zm-7.594-4.285a198.5 198.5 0 0 0 2.509 1.465l1.258.716-2.163 3.832c-.858-.484-1.714-.976-2.57-1.475l-1.28-.755 2.246-3.783Zm-14.08-66.063c5.613 24.318-9.494 48.637-33.683 54.222a44.306 44.306 0 0 1-13.63.994l-.083.115c-.69.96-1.462 1.874-2.317 2.734l-9.9 9.951a2.79 2.79 0 0 1-3.958.006l-11.859-11.92a157.822 157.822 0 0 1-9.926 5.949l-4.605-4.63c-.45.732-.987 1.418-1.607 2.04-3.626 3.645-14.804 3.984-18.56 3.992h-.316c-.59-.001-.93-.01-.93-.01v-.029a45.3 45.3 0 0 1-.01-.906v-.318c.01-3.777.353-15.016 3.971-18.654a11.208 11.208 0 0 1 2.03-1.615l-3.738-3.757a133.74 133.74 0 0 1 5.845-10.05l-11.786-11.846a2.822 2.822 0 0 1 0-3.984l9.901-9.951a22.33 22.33 0 0 1 18.127-6.473l.404.045c3.67-11.147 11.592-20.655 22.271-26.117l.057-.029c.022-1.34.102-2.657.242-3.947l4.374.472c-.053.493-.097.991-.13 1.494l-.05.018a44.99 44.99 0 0 1 5.823-1.765c24.189-5.584 48.43 9.656 54.042 33.97Zm6.688 61.455a206.79 206.79 0 0 0 2.446 1.574l1.227.77-2.328 3.735c-.837-.522-1.672-1.05-2.504-1.587l-1.248-.809 2.407-3.683Zm-7.161-4.897c.55.394 1.103.785 1.658 1.174l.94.654.944.65-2.484 3.63a212.71 212.71 0 0 1-1.924-1.33l-.848-.597-.845-.601 2.559-3.58Zm-64.777-6.753-4.262 4.285 5.94 5.97a2.794 2.794 0 0 0 3.964 0l5.831-5.86a45.429 45.429 0 0 1-11.473-4.395Zm-38.2-2.288c-2.187 2.199-3.963 11.945-3.963 11.945s9.697-1.785 11.884-3.984a5.65 5.65 0 0 0-.008-7.953l.008-.008a5.581 5.581 0 0 0-7.92 0Zm96.024 3.847c.76.593 1.526 1.182 2.297 1.767l1.162.875-2.633 3.525a209.21 209.21 0 0 1-2.365-1.793l-1.169-.906 2.708-3.468Zm-57.686-52.57a78.712 78.712 0 0 0-18.454 13.685 135.548 135.548 0 0 0-18.623 24.689l17.825 17.915a146.965 146.965 0 0 0 24.563-18.718 79.066 79.066 0 0 0 13.623-18.549h-.008l-18.926-19.022Zm50.926 47.052a183.5 183.5 0 0 0 2.218 1.865l1.123.924-2.782 3.408a203.12 203.12 0 0 1-2.287-1.894l-1.128-.956 2.856-3.347Zm-21.581-38.172c-2.11 6.504-5.746 13.917-10.883 21.292l-.284.406h-.002l.071.094c.183.263.308.556.373.86l-.029-.048.215.355c3.648 6.157 4.087 13.548 1.524 19.94l-.004.01a39.544 39.544 0 0 0 10.032-1.003c15.878-3.666 27.346-16.365 30.364-31.455l-2.442.564-6.574 10.582a2.355 2.355 0 0 1-1.478 1.055 2.35 2.35 0 0 1-1.786-.302l-5.689-3.575a2.389 2.389 0 0 1-1.113-2.066l.11-6.767-3.97.917a2.366 2.366 0 0 1-2.554-1.078l-5.906-9.703.025-.078Zm-14.579 30.129c-.33.532-.86.908-1.474 1.05l-2.95.681-.876 9.227c1.552.485 3.137.878 4.746 1.175l.807.14.089-.142a11.303 11.303 0 0 0-.19-11.902l-.152-.229Zm-9.669 6.74-1.75 1.76.016-.015c.495.248.996.487 1.5.715l.234-2.46Zm25.197-73.788-7.831 10.398 4.906 5.962.185.087c.667.325 1.24.723 1.71 1.196 2.23 2.244 2.802 6.839 1.746 12.752l-.07.385c.192.163.36.358.496.578l6.939 11.393 5.258-1.214a2.369 2.369 0 0 1 2.031.475c.564.461.89 1.159.875 1.895l-.141 8.466 2.537 1.595 5.84-9.395a2.362 2.362 0 0 1 1.473-1.06l5.19-1.197a40.526 40.526 0 0 0-.944-12.005c-3.587-15.54-15.69-26.89-30.2-30.311Zm-56.48 30.27a11.174 11.174 0 0 0-7.922 3.298l-7.92 7.961a2.822 2.822 0 0 0 0 3.984l5.94 5.97 12.305-12.369c.01-2.736.267-5.437.757-8.075l.058-.295a11.147 11.147 0 0 0-3.218-.474Zm41.791-7.892c-2.95.435-6.462 1.486-10.235 3.094l11.958 12.02-5.929-9.736a2.39 2.39 0 0 1 .78-3.275l3.426-2.103Zm7.47 1.01-6.395 3.921 5.162 8.479 2.233-1.852-.016.063.071-.302c1.082-4.724.88-8.398-.796-10.08h-.008a3.536 3.536 0 0 0-.252-.23Zm-41.66 9.869-.057.37-.051.372.43-.431c-.106-.106-.214-.21-.323-.311Zm30.726-33.34c-14.035 3.24-24.654 13.537-29.013 26.31l-.03-.01a22.357 22.357 0 0 1 5.273 2.658c11.902-8.492 23.958-13.021 32.154-13.47l-.083.006-2.83-3.439a2.392 2.392 0 0 1-.063-2.953l7.471-9.914c-4.208-.407-8.54-.19-12.88.813Zm115.587-20.58c6.767 0 12.251 5.484 12.251 12.25s-5.484 12.25-12.25 12.25-12.25-5.484-12.25-12.25c0-6.765 5.485-12.25 12.25-12.25Zm0 5.5-.218.004-.189.008a6.805 6.805 0 0 0-.232.018l-.072.007-.072.008-.09.011-.194.028a6.787 6.787 0 0 0-.806.18l-.093.027a6.696 6.696 0 0 0-2.509 1.406 6.87 6.87 0 0 0-.843.896l-.014.018a6.718 6.718 0 0 0-1.41 3.829l-.007.31.003.169.001.068a6.75 6.75 0 0 0 6.745 6.513l.238-.004a6.75 6.75 0 0 0-.237-13.496Zm-124.548 1.11 4.12 1.548a30.909 30.909 0 0 0-1.021 3.26l-.164.674-4.287-.992a35.589 35.589 0 0 1 1.352-4.49Zm109.643-4.12c.863.476 1.726.96 2.586 1.45l1.29.742-2.207 3.806a206.37 206.37 0 0 0-2.525-1.44l-1.266-.703 2.122-3.854Zm-105.139-4.111 3.52 2.641a28.353 28.353 0 0 0-1.891 2.865l-.306.544-3.86-2.112a32.732 32.732 0 0 1 2.537-3.938Zm97.23-.01c.884.434 1.767.878 2.65 1.329l1.322.683-2.034 3.902c-.861-.45-1.724-.89-2.586-1.323l-1.295-.644 1.943-3.948Zm-8.066-3.734c.902.391 1.805.792 2.708 1.2l1.355.621-1.85 3.993c-.88-.408-1.762-.807-2.643-1.198l-1.32-.58 1.75-4.036Zm-82.495-2.909 2.646 3.516a30 30 0 0 0-2.613 2.208l-.486.473-3.103-3.12a34.227 34.227 0 0 1 3.556-3.077Zm74.211-.433c.922.344 1.845.698 2.769 1.061l1.387.553-1.647 4.08a165.86 165.86 0 0 0-2.7-1.062l-1.348-.51 1.54-4.122Zm-8.43-2.884c.94.292 1.882.594 2.826.908l1.418.478-1.425 4.162c-.92-.314-1.838-.619-2.753-.913l-1.37-.433 1.304-4.202Zm-57.665-1.339 1.734 4.044c-1.04.446-2.043.929-3.005 1.448l-.715.396-2.177-3.824a41.242 41.242 0 0 1 4.163-2.064Zm49.045-1.05c.956.233 1.916.477 2.88.734l1.449.393-1.176 4.24c-.938-.26-1.871-.508-2.801-.745l-1.391-.346 1.039-4.276Zm-40.25-1.746.954 4.295a49.31 49.31 0 0 0-3.276.845l-.791.241-1.322-4.196c1.43-.451 2.91-.846 4.435-1.185Zm31.472-.066c1.092.184 2.19.386 3.297.604l1.108.224-.892 4.309a118.33 118.33 0 0 0-3.191-.615l-1.054-.183.732-4.339Zm-8.93-1.136c1.103.092 2.218.204 3.342.336l1.128.138-.558 4.364a100.245 100.245 0 0 0-3.22-.359l-1.06-.095.368-4.384Zm-13.516-.11.334 4.388a64.62 64.62 0 0 0-3.4.347l-.828.113-.625-4.355a68.191 68.191 0 0 1 4.52-.492Zm7.873-.195 1.143.034-.158 4.397a82.095 82.095 0 0 0-3.226-.054l-1.056.011-.075-4.4a84.26 84.26 0 0 1 3.372.012Z" id="prefix-8hl-形状结合" fill="#07123D" fill-rule="nonzero"/></svg></svg><svg height="10" version="1.1" width="10" xmlns="http://www.w3.org/2000/svg" x="347" y="272" preserveAspectRatio="none" transform="matrix(1,0,0,1,0,0)"><desc>Created with Snap</desc><defs/><svg xmlns="http://www.w3.org/2000/svg" viewBox="347 272 10 10"><path d="M351.5 271.65a4.85 4.85 0 1 1 0 9.7 4.85 4.85 0 0 1 0-9.7Z" id="prefix-1cf-形状结合" fill="#E2F0F7"/></svg></svg><svg height="14" version="1.1" width="14" xmlns="http://www.w3.org/2000/svg" x="286" y="155" preserveAspectRatio="none" transform="matrix(1,0,0,1,0,0)"><desc>Created with Snap</desc><defs/><svg xmlns="http://www.w3.org/2000/svg" viewBox="286 155 14 14"><path d="M292.5 154.75a6.75 6.75 0 1 1 0 13.5 6.75 6.75 0 0 1 0-13.5Z" id="prefix-021-形状结合" fill="#FFC522"/></svg></svg><svg height="60" version="1.1" width="60" xmlns="http://www.w3.org/2000/svg" x="122" y="200" preserveAspectRatio="none" transform="matrix(1,0,0,1,0,0)"><desc>Created with Snap</desc><defs/><svg xmlns="http://www.w3.org/2000/svg" viewBox="122 200 60 60"><path d="M146.507 203.481a11.174 11.174 0 0 0-7.922-3.298 11.174 11.174 0 0 0-7.922 3.298l-7.92 7.961a2.822 2.822 0 0 0 0 3.984l5.94 5.97 17.824-17.915Zm31.689 47.776a11.29 11.29 0 0 0 3.281-7.962 11.29 11.29 0 0 0-3.281-7.963l-17.825 17.916 5.94 5.97a2.794 2.794 0 0 0 3.964 0l7.92-7.96Z" id="prefix-t7d-形状结合" fill="#98E632" fill-rule="nonzero"/></svg></svg><svg height="20" version="1.1" width="19" xmlns="http://www.w3.org/2000/svg" x="170" y="192" preserveAspectRatio="none" transform="matrix(1,0,0,1,0,0)"><desc>Created with Snap</desc><defs/><svg xmlns="http://www.w3.org/2000/svg" viewBox="170 192 19 20"><path d="M188.097 193.53c-2.521-2.534-9.599-1.707-17.956 1.855l16.11 16.192c3.551-8.4 4.389-15.503 1.854-18.048h-.008Z" id="prefix-Bwj-路径" fill="#FF751F" fill-rule="nonzero"/></svg></svg><svg height="56" version="1.1" width="56" xmlns="http://www.w3.org/2000/svg" x="128" y="198" preserveAspectRatio="none" transform="matrix(1,0,0,1,0,0)"><desc>Created with Snap</desc><defs/><svg xmlns="http://www.w3.org/2000/svg" viewBox="128 198 56 56"><path d="m183.697 216.974-18.926-19.022a78.712 78.712 0 0 0-18.454 13.685 135.548 135.548 0 0 0-18.623 24.689l17.825 17.915a146.965 146.965 0 0 0 24.563-18.718 79.066 79.066 0 0 0 13.623-18.549h-.008Z" id="prefix-vsn-路径" fill="#E2F0F7" fill-rule="nonzero"/></svg></svg><svg height="23" version="1.1" width="22" xmlns="http://www.w3.org/2000/svg" x="147" y="212" preserveAspectRatio="none" transform="matrix(1,0,0,1,0,0)"><desc>Created with Snap</desc><defs/><svg xmlns="http://www.w3.org/2000/svg" viewBox="147 212 22 23"><path d="M150.468 231.351c-4.375-4.397-4.375-11.527 0-15.925a11.163 11.163 0 0 1 15.844 0c4.375 4.398 4.375 11.528 0 15.925a11.163 11.163 0 0 1-15.836 0h-.008Z" id="prefix-AEQ-路径" fill="#07123D" fill-rule="nonzero"/></svg></svg><svg height="11" version="1.1" width="11" xmlns="http://www.w3.org/2000/svg" x="153" y="218" preserveAspectRatio="none" transform="matrix(1,0,0,1,0,0)"><desc>Created with Snap</desc><defs/><svg xmlns="http://www.w3.org/2000/svg" viewBox="153 218 11 11"><path d="M162.351 219.406a5.58 5.58 0 0 0-6.104-1.22 5.63 5.63 0 0 0-3.459 5.201 5.63 5.63 0 0 0 3.459 5.202 5.58 5.58 0 0 0 6.104-1.221 5.65 5.65 0 0 0 .009-7.962h-.009Z" id="prefix-tsf-路径" fill="#4B9DEF" fill-rule="nonzero"/></svg></svg></g>
            <g id="icon_name_and_slogan_gap">
            </g>
            <g class="name_and_slogan" id="name_and_slogan_id">
              <g class="name"><g id="nameDefaultGroup"><path d="M269.6 219.6 L262.7 219.6 L262.7 232.7 L253.2 232.7 L253.2 194.3 L284.3 194.3 L284.3 210.2 Q284.3 214.1 283.1 216.2 Q281.9 218.3 279.6 219.1 L287.1 232.7 L276.9 232.7 L269.6 219.6 Z M262.7 201.9 L262.7 211.9 L274.9 211.9 L274.9 201.9 L262.7 201.9 Z M329.6 232.7 L297.6 232.7 L297.6 194.3 L329.6 194.3 L329.6 201.9 L307.4 201.9 L307.4 225.1 L329.6 225.1 L329.6 232.7 Z" style="" fill="#07123d" transform="matrix(1,0,0,1,0,0)"/></g></g>
              <g class="slogan"><g id="sloganDefaultGroup"><path d="M260.9 259 L257.8 254.5 Q257.7 254.5 257.6 254.5 Q257.4 254.5 257.3 254.5 L255.9 254.5 L255.9 259 L254.5 259 L254.5 247.9 L257.3 247.9 Q258.5 247.9 259.3 248.1 Q260.1 248.2 260.6 248.6 Q261.1 249 261.3 249.6 Q261.5 250.3 261.5 251.2 Q261.5 252.6 261 253.4 Q260.4 254.1 259.2 254.4 L262.6 259 L260.9 259 Z M257.2 253.3 Q257.9 253.3 258.5 253.3 Q259 253.2 259.4 253 Q259.7 252.8 259.9 252.3 Q260.1 251.9 260.1 251.2 Q260.1 250.5 259.9 250.2 Q259.7 249.8 259.4 249.5 Q259 249.3 258.5 249.2 Q257.9 249.1 257.2 249.1 L255.9 249.1 L255.9 253.3 L257.2 253.3 Z M269 248.8 Q268.5 248.8 268.3 248.6 Q268.2 248.5 268.2 248 Q268.2 247.4 268.3 247.3 Q268.5 247.1 269 247.1 Q269.4 247.1 269.6 247.3 Q269.8 247.4 269.8 248 Q269.8 248.5 269.6 248.6 Q269.4 248.8 269 248.8 Z M268.3 250.4 L269.7 250.4 L269.7 259 L268.3 259 L268.3 250.4 Z M280 259.2 Q279.1 259.2 278.3 259 Q277.6 258.7 277.1 258.2 Q276.6 257.7 276.3 256.8 Q276 256 276 254.7 Q276 253.4 276.3 252.5 Q276.6 251.7 277.1 251.2 Q277.6 250.6 278.3 250.4 Q279.1 250.2 280 250.2 Q280.8 250.2 281.3 250.3 Q281.9 250.4 282.3 250.5 L282.3 251.8 Q281.8 251.6 281.3 251.5 Q280.7 251.4 280.1 251.4 Q279.3 251.4 278.9 251.6 Q278.4 251.7 278.1 252.1 Q277.8 252.5 277.7 253.1 Q277.5 253.7 277.5 254.7 Q277.5 255.6 277.7 256.3 Q277.8 256.9 278.1 257.3 Q278.4 257.6 278.9 257.8 Q279.4 257.9 280.1 257.9 Q280.7 257.9 281.3 257.9 Q281.9 257.8 282.3 257.6 L282.3 258.8 Q282.2 258.9 281.9 259 Q281.6 259 281.3 259.1 Q281 259.1 280.7 259.1 Q280.4 259.2 280 259.2 Z M291.9 250.2 Q293 250.2 293.6 250.4 Q294.3 250.6 294.7 251 Q295.1 251.3 295.2 251.8 Q295.4 252.3 295.4 252.9 L295.4 259 L294.2 259 L294 257.7 Q293.8 258 293.5 258.3 Q293.2 258.6 292.8 258.8 Q292.4 259 291.9 259.1 Q291.4 259.2 290.9 259.2 Q289.4 259.2 288.6 258.5 Q287.9 257.8 287.9 256.6 Q287.9 255.8 288.2 255.3 Q288.4 254.8 288.9 254.5 Q289.3 254.1 290 254 Q290.6 253.8 291.4 253.8 L294 253.8 L294 253.1 Q294 252.7 293.9 252.4 Q293.8 252.1 293.6 251.8 Q293.4 251.6 292.9 251.5 Q292.5 251.4 291.9 251.4 Q291.5 251.4 290.9 251.4 Q290.4 251.5 290 251.5 L290 250.3 Q290.5 250.3 291 250.2 Q291.5 250.2 291.9 250.2 Z M291 258 Q292.1 258 292.9 257.6 Q293.7 257.1 294 256.4 L294 254.9 L291.5 254.9 Q290.9 254.9 290.5 255 Q290.1 255.1 289.9 255.2 Q289.6 255.4 289.5 255.8 Q289.4 256.1 289.4 256.6 Q289.4 257.3 289.8 257.7 Q290.1 258 291 258 Z M306.6 250.2 L306.6 251.5 L306.4 251.5 Q305.9 251.5 305.5 251.5 Q305.1 251.6 304.8 251.8 Q304.4 252 304.2 252.4 Q303.9 252.8 303.7 253.4 L303.7 259 L302.3 259 L302.3 250.4 L303.7 250.4 L303.7 251.9 Q303.9 251.4 304.2 251.1 Q304.5 250.7 304.9 250.5 Q305.2 250.3 305.7 250.3 Q306.1 250.2 306.4 250.2 L306.6 250.2 Z M319.6 246.8 L319.6 259 L318.5 259 L318.3 257.6 Q318 258.3 317.3 258.7 Q316.6 259.2 315.5 259.2 Q314.4 259.2 313.7 258.8 Q313 258.5 312.6 257.9 Q312.2 257.3 312 256.5 Q311.9 255.7 311.9 254.7 Q311.9 253.8 312 253 Q312.2 252.2 312.6 251.6 Q313 250.9 313.7 250.6 Q314.4 250.2 315.5 250.2 Q316.1 250.2 316.5 250.3 Q317 250.4 317.3 250.7 Q317.7 250.9 317.9 251.2 Q318.1 251.5 318.3 251.9 L318.3 246.8 L319.6 246.8 Z M315.7 258 Q316.4 258 317 257.8 Q317.5 257.5 317.8 257.1 Q318.1 256.7 318.2 256.1 Q318.3 255.5 318.3 254.7 Q318.3 253.9 318.2 253.3 Q318.1 252.7 317.8 252.3 Q317.5 251.8 317 251.6 Q316.4 251.4 315.7 251.4 Q314.9 251.4 314.4 251.6 Q314 251.9 313.7 252.4 Q313.5 252.9 313.4 253.5 Q313.4 254.1 313.4 254.7 Q313.4 255.4 313.4 256 Q313.5 256.6 313.7 257 Q314 257.5 314.4 257.7 Q314.9 258 315.7 258 Z M330 259.2 Q329.1 259.2 328.3 259 Q327.6 258.7 327.1 258.2 Q326.5 257.7 326.3 256.8 Q326 256 326 254.7 Q326 253.4 326.3 252.5 Q326.5 251.7 327.1 251.2 Q327.6 250.6 328.3 250.4 Q329.1 250.2 330 250.2 Q331 250.2 331.7 250.4 Q332.5 250.6 333 251.2 Q333.5 251.7 333.7 252.5 Q334 253.4 334 254.7 Q334 256 333.7 256.8 Q333.5 257.7 333 258.2 Q332.5 258.7 331.7 259 Q331 259.2 330 259.2 Z M330 258 Q330.8 258 331.3 257.8 Q331.7 257.7 332 257.3 Q332.3 256.9 332.4 256.3 Q332.5 255.6 332.5 254.7 Q332.5 253.7 332.4 253.1 Q332.3 252.5 332 252.1 Q331.7 251.7 331.2 251.5 Q330.7 251.4 330 251.4 Q329.3 251.4 328.8 251.5 Q328.3 251.7 328 252.1 Q327.7 252.5 327.6 253.1 Q327.5 253.7 327.5 254.7 Q327.5 255.6 327.6 256.3 Q327.8 256.9 328 257.3 Q328.4 257.7 328.8 257.8 Q329.3 258 330 258 Z M345.2 259.2 Q344 259.2 343.1 258.9 Q342.2 258.7 341.5 258.1 Q340.8 257.4 340.5 256.3 Q340.1 255.2 340.1 253.5 Q340.1 251.8 340.5 250.8 Q340.9 249.7 341.5 249 Q342.2 248.3 343.2 248 Q344.1 247.7 345.3 247.7 Q346.1 247.7 346.7 247.8 Q347.2 247.9 347.7 248.1 L347.7 249.4 Q347.2 249.2 346.7 249.1 Q346.1 249 345.4 249 Q344.4 249 343.7 249.2 Q343 249.5 342.5 250 Q342.1 250.5 341.9 251.3 Q341.6 252.2 341.6 253.4 Q341.6 254.8 341.8 255.6 Q342.1 256.5 342.5 257 Q342.9 257.5 343.6 257.7 Q344.3 257.9 345.2 257.9 Q346 257.9 346.6 257.8 Q347.2 257.7 347.9 257.4 L347.9 258.7 Q347.4 258.9 346.7 259 Q346 259.2 345.2 259.2 Z M357.5 259.2 Q356.5 259.2 355.8 259 Q355.1 258.7 354.5 258.2 Q354 257.7 353.8 256.8 Q353.5 256 353.5 254.7 Q353.5 253.4 353.8 252.5 Q354 251.7 354.5 251.2 Q355.1 250.6 355.8 250.4 Q356.5 250.2 357.5 250.2 Q358.5 250.2 359.2 250.4 Q359.9 250.6 360.4 251.2 Q361 251.7 361.2 252.5 Q361.5 253.4 361.5 254.7 Q361.5 256 361.2 256.8 Q361 257.7 360.4 258.2 Q359.9 258.7 359.2 259 Q358.5 259.2 357.5 259.2 Z M357.5 258 Q358.2 258 358.7 257.8 Q359.2 257.7 359.5 257.3 Q359.8 256.9 359.9 256.3 Q360 255.6 360 254.7 Q360 253.7 359.9 253.1 Q359.8 252.5 359.5 252.1 Q359.2 251.7 358.7 251.5 Q358.2 251.4 357.5 251.4 Q356.8 251.4 356.3 251.5 Q355.8 251.7 355.5 252.1 Q355.2 252.5 355.1 253.1 Q355 253.7 355 254.7 Q355 255.6 355.1 256.3 Q355.2 256.9 355.5 257.3 Q355.8 257.7 356.3 257.8 Q356.8 258 357.5 258 Z M372 250.2 Q372.9 250.2 373.4 250.4 Q374 250.6 374.3 251 Q374.7 251.4 374.8 251.9 Q374.9 252.4 374.9 253 L374.9 259 L373.6 259 L373.6 253.5 Q373.6 253 373.5 252.6 Q373.4 252.2 373.2 252 Q373.1 251.7 372.7 251.6 Q372.4 251.4 371.9 251.4 Q371.5 251.4 371.1 251.5 Q370.7 251.5 370.3 251.7 Q370 251.9 369.7 252.2 Q369.5 252.6 369.3 253.2 L369.3 259 L367.9 259 L367.9 246.8 L369.3 246.8 L369.3 251.6 Q369.5 251.2 369.8 250.9 Q370.1 250.6 370.5 250.5 Q370.8 250.3 371.2 250.3 Q371.6 250.2 372 250.2 Z M388.6 253.8 Q388.6 254 388.6 254.2 Q388.6 254.5 388.6 254.8 L382.7 255.2 Q382.7 255.9 382.9 256.4 Q383 256.9 383.3 257.3 Q383.6 257.6 384.2 257.8 Q384.7 257.9 385.5 257.9 Q386.2 257.9 386.9 257.8 Q387.7 257.6 388.2 257.4 L388.2 258.6 Q388 258.8 387.7 258.8 Q387.4 258.9 387 259 Q386.6 259.1 386.2 259.1 Q385.7 259.2 385.3 259.2 Q384.3 259.2 383.6 259 Q382.8 258.7 382.3 258.2 Q381.8 257.7 381.5 256.8 Q381.3 256 381.3 254.7 Q381.3 253.4 381.5 252.5 Q381.8 251.7 382.3 251.2 Q382.8 250.6 383.5 250.4 Q384.3 250.2 385.2 250.2 Q386.3 250.2 387 250.5 Q387.7 250.9 388 251.4 Q388.4 251.9 388.5 252.5 Q388.6 253.2 388.6 253.8 Z M387.3 253.8 Q387.3 253.3 387.2 252.9 Q387.2 252.4 386.9 252.1 Q386.7 251.7 386.3 251.5 Q385.9 251.3 385.2 251.3 Q384.4 251.3 384 251.5 Q383.5 251.7 383.2 252.1 Q383 252.5 382.8 253 Q382.7 253.5 382.7 254.2 L387.3 253.8 Z M399.2 250.2 Q400 250.2 400.6 250.4 Q401.1 250.6 401.5 251 Q401.8 251.4 401.9 251.9 Q402.1 252.4 402.1 253 L402.1 259 L400.7 259 L400.7 253.5 Q400.7 253 400.6 252.6 Q400.5 252.2 400.4 252 Q400.2 251.7 399.9 251.6 Q399.5 251.4 399 251.4 Q398.6 251.4 398.2 251.5 Q397.8 251.5 397.5 251.7 Q397.1 251.9 396.9 252.2 Q396.6 252.6 396.4 253.2 L396.4 259 L395 259 L395 250.4 L396.4 250.4 L396.4 251.6 Q396.6 251.2 396.9 250.9 Q397.2 250.6 397.6 250.5 Q398 250.3 398.4 250.3 Q398.8 250.2 399.2 250.2 Z" style="" fill="#07123d" transform="matrix(1,0,0,1,0,0)"/></g></g>
            </g>
            <g class="border">
            </g>
          </g>
          
          <defs id="defs">
            <mask xmlns="http://www.w3.org/2000/svg" id="mask">
                <rect id="showAll" fill="white" x="114" y="132" width="246" height="160"/>
                <rect id="hideNameBg" fill="black" x="0" y="0" width="0" height="0" stroke-width="2" stroke="black"/>
                <rect id="hideSloganBg" fill="black" x="0" y="0" width="0" height="0" stroke-width="2" stroke="black"/>
            </mask>
          </defs>
          
        </g>
        </svg>